<svg width="154" height="216" viewBox="0 0 154 216" fill="none" xmlns="http://www.w3.org/2000/svg">
<ellipse cx="52" cy="34" rx="102" ry="95" fill="#F08500"/>
<path d="M43.2411 139.9L76.8991 125.342L80.3394 152.801L43.2411 139.9Z" fill="#014E84"/>
<path d="M76.7933 125.484L80.1992 152.659L43.4823 139.892L76.7933 125.484ZM77.0049 125.2L43 139.908L80.4797 152.941L77.0049 125.2Z" fill="#014E84"/>
<path d="M80.6249 152.98L110.729 161.563L80.1401 174.055L80.6249 152.98Z" fill="#03335A"/>
<path d="M80.7455 153.101L84.4147 154.148L110.466 161.574L86.6099 171.318L80.2681 173.908L80.2705 173.792L80.7455 153.101ZM80.5043 152.857C80.3419 159.972 80.177 167.087 80.0146 174.202C90.3406 169.984 100.667 165.766 110.993 161.55C100.829 158.653 90.6679 155.754 80.5043 152.857Z" fill="#03335B"/>
<path d="M80.62 152.802L77.0591 125.541L110.692 161.3L80.62 152.802Z" fill="#0262AC"/>
<path d="M77.2264 125.872L93.7392 143.428L110.385 161.125L108.148 160.494L80.7381 152.749L78.9441 139.021L77.2264 125.872ZM76.8917 125.21C78.0951 134.426 79.2985 143.642 80.5019 152.857C90.6679 155.73 100.834 158.603 111 161.476C99.633 149.387 88.2636 137.298 76.8917 125.21Z" fill="#0063B4"/>
<path d="M43.4578 140.1L80.3321 153.064L79.8006 173.874L43.4578 140.1Z" fill="#021D32"/>
<path d="M43.8589 140.333L61.6415 146.584L80.2091 153.111L80.0319 160.085L79.6873 173.624L54.8321 150.527L43.8589 140.333ZM43.0566 139.868C55.344 151.286 67.6313 162.705 79.9187 174.123C80.0983 167.087 80.278 160.051 80.4552 153.016C67.9882 148.633 55.5236 144.25 43.0566 139.868Z" fill="#021D32"/>
<path d="M86.1398 134.671L102.53 140.803L87.8969 147.738L86.1398 134.671Z" fill="#004D88"/>
<path d="M86.2825 134.816L102.301 140.809L87.9978 147.588L87.1389 141.19L86.2825 134.816ZM85.9971 134.524C86.5951 138.978 87.1931 143.432 87.7935 147.887C92.7818 145.523 97.7701 143.159 102.758 140.795C97.1696 138.705 91.5833 136.614 85.9971 134.524Z" fill="white"/>
<path d="M87.9855 147.851L102.626 140.99L103.435 153.169L87.9855 147.851Z" fill="#00294B"/>
<path d="M102.512 141.143L103.305 153.033L100.777 152.163L88.2217 147.84L91.4529 146.325L102.512 141.143ZM102.739 140.838C97.743 143.18 92.7473 145.52 87.7542 147.861C93.0254 149.676 98.2992 151.491 103.57 153.306C103.292 149.15 103.014 144.995 102.739 140.838Z" fill="white"/>
<path d="M52.7304 158.693L52.851 148.757L72.1618 164.61L52.7304 158.693Z" fill="#021D31"/>
<path d="M52.9716 148.985L62.4658 156.78L71.7385 164.392L62.6971 161.639L52.851 158.642L52.9027 154.382L52.9716 148.985ZM52.7304 148.53C52.6886 151.935 52.6468 155.339 52.6049 158.745C59.2642 160.773 65.9234 162.8 72.5826 164.828C65.9677 159.394 59.3503 153.962 52.7304 148.53Z" fill="#021D31"/>
<path d="M79.1237 214.922C76.8252 205.649 74.6965 196.232 72.7991 186.927C71.1478 178.827 69.627 170.603 68.2809 162.477C68.3276 162.477 68.3744 162.475 68.4236 162.475C69.5507 162.475 70.5154 162.656 71.2906 163.015C72.8853 163.751 73.3725 165.066 73.5005 166.038C74.1206 170.75 74.7556 175.522 75.3905 180.221C76.9408 191.689 78.565 203.31 80.2163 214.759L79.1237 214.922Z" fill="#332729"/>
<path d="M68.4237 162.558C69.5262 162.558 70.4662 162.734 71.2193 163.082C72.7746 163.801 73.252 165.091 73.3775 166.047C73.9952 170.751 74.6326 175.523 75.2675 180.232C76.8129 191.67 78.4347 203.266 80.0835 214.7L79.5962 214.772L79.2222 214.826C76.9311 205.585 74.8122 196.198 72.9198 186.919C71.2734 178.85 69.7599 170.654 68.4163 162.559C68.4187 162.558 68.4212 162.558 68.4237 162.558ZM68.4237 162.396C68.3252 162.396 68.2317 162.398 68.1431 162.399C69.472 170.42 70.9781 178.603 72.6761 186.938C74.6326 196.538 76.7588 205.901 79.0228 215.019C79.4658 214.954 79.9063 214.889 80.3493 214.825C78.6857 203.29 77.0738 191.754 75.5136 180.216C74.8737 175.489 74.2437 170.761 73.6236 166.033C73.5276 165.308 73.1536 163.778 71.362 162.95C70.3629 162.49 69.2358 162.396 68.4237 162.396Z" fill="#332729"/>
<path d="M83.0859 215.227L80.123 170.143C80.4208 167.993 81.3731 166.682 82.1237 166.663C82.9358 166.663 84.0998 168.001 84.6708 170.243L84.8184 215.256L83.0859 215.227Z" fill="#8C9087"/>
<path d="M82.1409 166.743C82.7733 166.743 83.962 167.959 84.5452 170.244V170.28L84.6953 215.174L83.9693 215.161L83.2065 215.148L82.5445 205.075L80.2484 170.151C80.5364 168.067 81.4494 166.761 82.131 166.743H82.1409ZM82.1409 166.582C82.1335 166.582 82.1261 166.582 82.1187 166.582C81.2033 166.606 80.2804 168.1 79.9999 170.147C80.9892 185.201 81.9785 200.253 82.9677 215.306C83.6248 215.317 84.2843 215.329 84.9414 215.34C84.8922 200.303 84.8405 185.267 84.7913 170.23C84.2425 168.071 83.0711 166.582 82.1409 166.582Z" fill="#8C9087"/>
<path d="M87.9536 213.536L89.3317 167.543C90.599 165.025 92.0091 163.667 92.6933 163.667C92.7203 163.667 92.7449 163.669 92.7695 163.673C93.4069 163.788 93.8253 165.447 93.4242 168.022L89.5531 213.623L87.9536 213.536Z" fill="#B1B6B6"/>
<path d="M92.6932 163.748C92.7104 163.748 92.7227 163.749 92.7375 163.751C93.2198 163.838 93.7341 165.253 93.301 168.021L89.4374 213.536L88.768 213.499L88.0765 213.462L88.421 201.984L89.4521 167.557C90.7786 164.93 92.1444 163.748 92.6932 163.748ZM92.6932 163.586C91.8442 163.586 90.3947 165.166 89.2085 167.528C88.7483 182.888 88.2881 198.249 87.8279 213.611C88.4407 213.644 89.0559 213.678 89.6687 213.711C90.9607 198.484 92.2551 183.257 93.5471 168.03C93.9261 165.61 93.6135 163.741 92.8039 163.596C92.767 163.59 92.7301 163.586 92.6932 163.586Z" fill="#B1B6B6"/>
<path d="M78.2329 134.463C78.8974 128.012 78.6267 122.786 78.2329 119.122C77.7998 115.074 77.4602 114.565 77.0025 109.271C76.5718 104.303 76.6998 102.405 76.0181 97.6447C75.5112 94.1082 75.2626 93.8934 75.0337 91.6698C74.5563 87.0159 75.1691 83.2065 75.772 80.689C74.7877 82.7027 73.6802 85.3251 72.8189 88.4402C72.2234 90.5927 71.3104 93.9823 71.3424 98.2906C71.3621 100.861 72.0683 104.186 73.5572 110.725C74.2955 113.964 74.859 116.298 75.0337 117.023C76.0083 121.081 77.2338 126.931 78.2329 134.463Z" fill="#E87506" stroke="#E87506" stroke-miterlimit="10"/>
<path d="M75.0337 126.066C74.1453 124.79 73.0084 122.725 72.8189 120.091C72.5826 116.803 73.9509 114.374 74.2954 113.793C75.2429 112.188 76.3774 111.119 77.4946 110.079C78.9244 108.748 81.3755 106.702 85.3696 104.588C90.3455 101.956 91.4529 102.513 95.4593 100.39C97.4428 99.3386 102.04 96.9002 103.58 93.6076C106.56 87.2403 96.6996 80.6889 95.9515 80.2045C96.2222 83.1758 95.8112 87.2661 92.014 90.7009C90.9484 91.6633 89.9715 92.2543 78.479 97.1602C69.3441 101.058 65.3549 102.623 62.7291 106.042C61.5897 107.524 61.0434 108.866 60.7579 109.756C60.534 112.343 60.6374 115.947 62.1016 120.1C63.4748 123.995 65.5912 127.098 67.4049 129.295C69.947 128.218 72.4916 127.143 75.0337 126.066Z" fill="#FF6009" stroke="#FF6009" stroke-miterlimit="10"/>
<path d="M61.4988 71C60.6571 72.484 58.5555 76.7859 60.7605 81.9808C63.3297 88.0365 70.0012 91.1854 71.8346 91.9928C74.4629 92.8535 78.4545 94.428 82.1705 97.1603C87.1317 100.808 88.8912 104.53 89.7993 106.526C93.3676 114.373 90.6163 121.339 89.0413 124.459C87.0431 126.626 84.6609 129.003 82.4165 131.072C81.2673 129.833 80.1205 128.596 78.9713 127.358C82.4116 115.185 81.5897 112.932 77.4381 108.928C73.6335 105.255 69.9372 102.937 68.6354 102.166C66.5363 100.924 52.2999 92.5063 51.9012 83.9186C51.8102 81.9582 52.3023 76.991 61.4988 71Z" fill="#F89544" stroke="#F89544" stroke-miterlimit="10"/>
</svg>
